<?xml version="1.0" encoding="UTF-8" standalone="no"?>
<svg
   xmlns:dc="http://purl.org/dc/elements/1.1/"
   xmlns:cc="http://creativecommons.org/ns#"
   xmlns:rdf="http://www.w3.org/1999/02/22-rdf-syntax-ns#"
   xmlns:svg="http://www.w3.org/2000/svg"
   xmlns="http://www.w3.org/2000/svg"
   width="1024"
   height="1024"
   viewBox="0 0 270.93333 270.93333"
   version="1.1"
   id="svg8">
  <defs
     id="defs2" />
  <metadata
     id="metadata5">
    <rdf:RDF>
      <cc:Work
         rdf:about="">
        <dc:format>image/svg+xml</dc:format>
        <dc:type
           rdf:resource="http://purl.org/dc/dcmitype/StillImage" />
        <dc:title></dc:title>
      </cc:Work>
    </rdf:RDF>
  </metadata>
  <g
     id="layer1">
    <path
       style="fill:#000000;fill-opacity:1;stroke:none;stroke-width:0.264583px;stroke-linecap:butt;stroke-linejoin:miter;stroke-opacity:1"
       d="m 96.122404,122.25177 80.111786,-0.47814 c 5.8449,-0.0349 7.05884,3.12575 3.20176,7.51333 -7.03147,7.99856 -17.15663,21.75283 -21.41773,38.45974 -1.44289,5.65731 -2.29309,15.22959 -1.2011,20.95287 3.59139,18.82313 19.80415,35.6467 29.88816,44.5404 4.38216,3.8649 3.47536,6.80121 -2.36742,6.96248 l -93.810597,2.58932 c -5.842788,0.16127 -7.021079,-2.85425 -3.056749,-7.14612 7.760158,-8.4013 19.291226,-23.12641 23.393346,-40.03758 1.37551,-5.67063 1.71818,-15.23928 0.83471,-21.00835 -2.70444,-17.66 -12.846041,-34.33915 -19.677945,-43.92417 -3.391063,-4.7576 -1.743131,-8.3889 4.101779,-8.42378 z"
       id="path865" />
    <circle
       style="fill:#000000;fill-opacity:1;stroke:none;stroke-width:9.46499"
       id="path870"
       cx="134.97215"
       cy="60.791237"
       r="34.83469" />
  </g>
</svg>
