<?xml version="1.0" encoding="UTF-8" standalone="no"?>
<svg
   xmlns:dc="http://purl.org/dc/elements/1.1/"
   xmlns:cc="http://creativecommons.org/ns#"
   xmlns:rdf="http://www.w3.org/1999/02/22-rdf-syntax-ns#"
   xmlns:svg="http://www.w3.org/2000/svg"
   xmlns="http://www.w3.org/2000/svg"
   width="1024"
   height="1024"
   viewBox="0 0 270.93333 270.93333"
   version="1.1"
   id="svg8">
  <defs
     id="defs2" />
  <metadata
     id="metadata5">
    <rdf:RDF>
      <cc:Work
         rdf:about="">
        <dc:format>image/svg+xml</dc:format>
        <dc:type
           rdf:resource="http://purl.org/dc/dcmitype/StillImage" />
        <dc:title></dc:title>
      </cc:Work>
    </rdf:RDF>
  </metadata>
  <g
     id="layer1">
    <path
       style="fill:#000000;fill-opacity:1;stroke:none;stroke-width:0.264583px;stroke-linecap:butt;stroke-linejoin:miter;stroke-opacity:1"
       d="m 69.765498,203.30965 -9.688962,19.43862 a 9.6257162,9.6257162 68.78048 0 0 5.15474,13.2763 l 29.753758,11.46164 a 9.512178,9.512178 153.01636 0 0 12.608876,-6.42001 l 5.74691,-21.5 a 13.591924,13.591924 142.87126 0 1 13.31532,-10.0808 l 16.705,0.22664 a 18.018491,18.018491 31.205571 0 1 15.61055,9.45616 l 10.58608,19.6062 a 9.3020433,9.3020433 12.947138 0 0 13.61848,3.13084 l 26.37111,-18.97719 a 8.2696812,8.2696812 92.264066 0 0 0.51486,-13.02238 L 194.7809,196.96099 a 12.716912,12.716912 80.035756 0 1 -2.81517,-16.02414 l 7.79477,-13.60834 a 15.52396,15.52396 154.08772 0 1 15.73082,-7.64264 l 21.15986,3.1139 a 11.062936,11.062936 144.64087 0 0 12.47366,-8.85118 l 5.15144,-26.72561 a 9.0335737,9.0335737 51.393081 0 0 -8.57456,-10.73851 l -25.90227,-0.84841 a 18.853817,18.853817 31.183108 0 1 -15.79072,-9.55684 l -7.97982,-14.098654 a 13.343762,13.343762 98.909167 0 1 2.56831,-16.38374 L 218.24454,57.484662 A 9.0449958,9.0449958 87.846844 0 0 217.72787,43.742469 L 197.48183,27.715471 a 9.9452199,9.9452199 171.58513 0 0 -14.33881,2.121174 L 164.21553,57.064974 A 17.294579,17.294579 156.26905 0 1 147.68768,64.33084 L 131.9406,62.192403 A 14.730339,14.730339 43.429575 0 1 119.45693,50.374975 l -4.52979,-23.57996 a 8.9686107,8.9686107 29.404624 0 0 -11.92152,-6.7187 L 68.000392,33.036608 a 9.4044189,9.4044189 111.30799 0 0 -5.109094,13.098746 l 11.43391,22.375101 a 19.527805,19.527805 91.388515 0 1 -0.450939,18.603911 l -7.811946,13.615874 a 17.76569,17.76569 150.62753 0 1 -15.846904,8.91924 L 27.189294,109.0825 a 10.648339,10.648339 136.58596 0 0 -10.905427,10.31781 l -0.920996,29.9495 a 8.8286116,8.8286116 41.596233 0 0 10.139894,9.00142 l 27.608128,-4.16001 a 11.806842,11.806842 33.30327 0 1 13.173045,8.65415 l 5.494886,20.76129 a 28.068719,28.068719 95.834451 0 1 -2.013326,19.70299 z"
       id="path936" />
    <ellipse
       style="fill:#ffffff;fill-opacity:1;stroke:none;stroke-width:7.24604"
       id="path940"
       cx="133.83859"
       cy="137.58595"
       rx="46.558613"
       ry="47.753975" />
    <ellipse
       style="fill:#000000;fill-opacity:1;stroke:none;stroke-width:3.49651"
       id="path940-3"
       cx="134.25195"
       cy="137.30869"
       rx="22.466455"
       ry="23.043268" />
  </g>
</svg>
