<?xml version="1.0" encoding="UTF-8" standalone="no"?>
<svg
   width="1024"
   height="1024"
   viewBox="0 0 270.93333 270.93333"
   version="1.1"
   id="svg8"
   xmlns="http://www.w3.org/2000/svg"
   xmlns:svg="http://www.w3.org/2000/svg"
   xmlns:rdf="http://www.w3.org/1999/02/22-rdf-syntax-ns#"
   xmlns:cc="http://creativecommons.org/ns#"
   xmlns:dc="http://purl.org/dc/elements/1.1/">
  <defs
     id="defs2" />
  <metadata
     id="metadata5">
    <rdf:RDF>
      <cc:Work
         rdf:about="">
        <dc:format>image/svg+xml</dc:format>
        <dc:type
           rdf:resource="http://purl.org/dc/dcmitype/StillImage" />
      </cc:Work>
    </rdf:RDF>
  </metadata>
  <g
     id="layer1">
    <path
       style="fill:#fcfcfc;fill-opacity:1;stroke:none;stroke-width:0.312485px;stroke-linecap:butt;stroke-linejoin:miter;stroke-opacity:1"
       d="m 196.86398,44.951333 -0.57654,71.837717 a 10.780718,10.780718 45.989164 0 0 10.49469,10.86345 l 34.47759,0.91397 a 3.5580122,3.5580122 72.936375 0 1 1.97923,6.44813 l -91.9284,65.92539 a 15.787589,15.787589 178.19047 0 1 -17.57295,0.55518 L 34.036816,139.13058 a 3.1227119,3.1227119 105.58751 0 1 1.609603,-5.7698 l 41.248352,-0.61319 A 10.356206,10.356206 133.52687 0 0 87.090122,122.01402 L 84.286498,45.357233 a 6.8765298,6.8765298 144.89158 0 1 9.434319,-6.632622 l 23.854703,9.57877 a 55.437176,55.437176 11.069647 0 0 20.40435,3.991951 l 5.87292,0.02681 a 51.531043,51.531043 168.65564 0 0 20.32882,-4.078467 l 23.0217,-9.748554 a 6.950619,6.950619 33.754781 0 1 9.66067,6.456214 z"
       id="path1042" />
    <path
       style="fill:#fcfcfc;fill-opacity:1;stroke:none;stroke-width:0.264583px;stroke-linecap:butt;stroke-linejoin:miter;stroke-opacity:1"
       d="m 228.8702,236.78996 c 0.0751,-1.62854 0.15388,-3.31059 0.2309,-4.93938 0.27609,-5.83846 -4.2296,-10.58918 -10.07458,-10.61154 L 60.869651,220.63393 a 10.17522,10.17522 134.09292 0 0 -10.207744,10.53618 l 0.181956,5.12495 a 10.994669,10.994669 44.058718 0 0 10.958808,10.60453 l 156.068899,0.41076 c 5.845,0.0154 10.7301,-4.69642 10.99863,-10.52039 z"
       id="path1044" />
  </g>
</svg>
