<?xml version="1.0" encoding="UTF-8" standalone="no"?>
<svg
   width="1024"
   height="1024"
   viewBox="0 0 270.93333 270.93333"
   version="1.1"
   id="svg8"
   xmlns="http://www.w3.org/2000/svg"
   xmlns:svg="http://www.w3.org/2000/svg"
   xmlns:rdf="http://www.w3.org/1999/02/22-rdf-syntax-ns#"
   xmlns:cc="http://creativecommons.org/ns#"
   xmlns:dc="http://purl.org/dc/elements/1.1/">
  <defs
     id="defs2" />
  <metadata
     id="metadata5">
    <rdf:RDF>
      <cc:Work
         rdf:about="">
        <dc:format>image/svg+xml</dc:format>
        <dc:type
           rdf:resource="http://purl.org/dc/dcmitype/StillImage" />
      </cc:Work>
    </rdf:RDF>
  </metadata>
  <g
     id="layer1">
    <circle
       id="path1199"
       style="fill:#000000;stroke:#000000;stroke-width:0.264583"
       cx="72.350815"
       cy="30.866179"
       r="0.035242245" />
    <circle
       id="path1201"
       style="fill:#000000;stroke:#000000;stroke-width:0.264583"
       cx="72.350815"
       cy="30.866179"
       r="0.035242245" />
    <circle
       id="path1203"
       style="fill:#000000;stroke:#000000;stroke-width:0.264583"
       cx="118.8742"
       cy="102.80704"
       r="0.035242245" />
    <circle
       id="path1205"
       style="fill:#000000;stroke:#000000;stroke-width:0.264583"
       cx="118.8742"
       cy="102.80704"
       r="0.035242245" />
    <path
       id="path1798"
       style="fill:#fcfcfc;fill-rule:evenodd;stroke-width:0.931344;stroke:none;fill-opacity:1"
       d="M 735.57617,272.96094 C 613.56684,296.07459 588.44453,363.16308 517.57568,450.25513 452.85816,365.00674 417.18236,300.44908 293.25586,277.10742 164.7825,252.91756 56.546632,387.76724 56.546875,524.27344 56.547668,660.77887 164.08632,791.57674 293.25586,771.4375 420.50811,751.59635 450.29493,672.59554 516.83349,587.26648 577.47944,681.31439 629.88857,745.83514 735.57617,767.29102 863.69308,793.29522 972.28241,656.63159 972.2832,520.12695 972.28344,383.62156 864.03627,248.70495 735.57617,272.96094 Z m -440.75195,96.07812 c 89.75956,22.26603 168.66406,150.88086 168.66406,150.88086 0,0 -76.19968,130.54444 -168.66406,150.88086 -90.97711,20.00931 -168.66603,-67.55136 -168.66602,-150.88086 -10e-6,-83.3295 78.25468,-173.30846 168.66602,-150.88086 z m 443.71094,1.17969 c 90.8289,-20.66827 162.84943,66.82491 162.84942,150.15373 10e-6,83.32882 -71.49509,169.8138 -162.84942,151.60799 C 649.9453,654.32559 569.86914,521.09961 569.86914,521.09961 c 0,0 67.9597,-127.96497 168.66602,-150.88086 z"
       transform="scale(0.26458333)" />
  </g>
</svg>
