<?xml version="1.0" encoding="UTF-8" standalone="no"?>
<svg
   width="1024"
   height="1024"
   viewBox="0 0 270.93333 270.93333"
   version="1.1"
   id="svg8"
   xmlns="http://www.w3.org/2000/svg"
   xmlns:svg="http://www.w3.org/2000/svg"
   xmlns:rdf="http://www.w3.org/1999/02/22-rdf-syntax-ns#"
   xmlns:cc="http://creativecommons.org/ns#"
   xmlns:dc="http://purl.org/dc/elements/1.1/">
  <defs
     id="defs2" />
  <metadata
     id="metadata5">
    <rdf:RDF>
      <cc:Work
         rdf:about="">
        <dc:format>image/svg+xml</dc:format>
        <dc:type
           rdf:resource="http://purl.org/dc/dcmitype/StillImage" />
      </cc:Work>
    </rdf:RDF>
  </metadata>
  <g
     id="layer1">
    <path
       id="path936"
       style="fill:#fcfcfc;fill-opacity:1;stroke:none;stroke-width:0.999999px;stroke-linecap:butt;stroke-linejoin:miter;stroke-opacity:1"
       d="m 397.47461,73.962891 a 33.897111,33.897111 0 0 0 -8.16211,1.916015 L 257.00977,124.86328 a 35.54426,35.54426 0 0 0 -19.31055,49.50586 l 43.21484,84.56836 a 73.805877,73.805877 0 0 1 -1.70508,70.31445 l -29.52539,51.46094 a 67.145915,67.145915 0 0 1 -59.89257,33.71094 l -87.0293,-2.14258 a 40.245691,40.245691 0 0 0 -41.216798,38.99609 l -3.480469,113.19532 a 33.367981,33.367981 0 0 0 38.324219,34.01953 L 200.73438,582.76953 a 44.624285,44.624285 0 0 1 49.7871,32.70899 l 20.76954,78.46875 a 106.0865,106.0865 0 0 1 -7.61133,74.46679 l -36.61914,73.46875 a 36.38066,36.38066 0 0 0 19.48242,50.17774 l 112.45508,43.32031 a 35.951539,35.951539 0 0 0 47.65625,-24.26367 l 21.7207,-81.25977 a 51.371051,51.371051 0 0 1 50.32617,-38.10156 l 63.13672,0.85742 a 68.101383,68.101383 0 0 1 59,35.73828 l 40.00977,74.10352 a 35.157329,35.157329 0 0 0 51.47265,11.83203 l 99.66992,-71.72461 a 31.255488,31.255488 0 0 0 1.94532,-49.21875 L 736.17969,744.41992 A 48.063919,48.063919 0 0 1 725.53906,683.85547 L 755,632.42188 a 58.673235,58.673235 0 0 1 59.45508,-28.88477 l 79.97461,11.76953 a 41.812671,41.812671 0 0 0 47.14453,-33.45312 l 19.4707,-101.01172 a 34.142641,34.142641 0 0 0 -32.4082,-40.58594 l -97.89844,-3.20703 a 71.258521,71.258521 0 0 1 -59.68164,-36.11914 l -30.16016,-53.28711 a 50.433116,50.433116 0 0 1 9.70704,-61.92188 l 74.25781,-68.45508 a 34.185811,34.185811 0 0 0 -1.95313,-51.93945 l -76.51953,-60.57422 a 37.588233,37.588233 0 0 0 -54.19531,8.01563 l -71.53711,102.91015 a 65.365338,65.365338 0 0 1 -62.4668,27.46289 l -59.51562,-8.08203 a 55.673722,55.673722 0 0 1 -47.1836,-44.66406 L 434.37109,101.27344 A 33.897111,33.897111 0 0 0 397.47461,73.962891 Z M 505.8457,339.52148 A 175.96956,180.48746 0 0 1 681.81641,520.00977 175.96956,180.48746 0 0 1 505.8457,700.49805 175.96956,180.48746 0 0 1 329.87695,520.00977 175.96956,180.48746 0 0 1 505.8457,339.52148 Z"
       transform="scale(0.26458333)" />
    <ellipse
       style="fill:#fcfcfc;fill-opacity:1;stroke:none;stroke-width:3.49651"
       id="path940-3"
       cx="134.25195"
       cy="137.30869"
       rx="22.466455"
       ry="23.043268" />
  </g>
</svg>
