<?xml version="1.0" encoding="UTF-8" standalone="no"?>
<svg
   width="1024"
   height="1024"
   viewBox="0 0 270.93333 270.93333"
   version="1.1"
   id="svg8"
   xmlns="http://www.w3.org/2000/svg"
   xmlns:svg="http://www.w3.org/2000/svg"
   xmlns:rdf="http://www.w3.org/1999/02/22-rdf-syntax-ns#"
   xmlns:cc="http://creativecommons.org/ns#"
   xmlns:dc="http://purl.org/dc/elements/1.1/">
  <defs
     id="defs2" />
  <metadata
     id="metadata5">
    <rdf:RDF>
      <cc:Work
         rdf:about="">
        <dc:format>image/svg+xml</dc:format>
        <dc:type
           rdf:resource="http://purl.org/dc/dcmitype/StillImage" />
      </cc:Work>
    </rdf:RDF>
  </metadata>
  <g
     id="layer1">
    <path
       style="fill:#fcfcfc;fill-opacity:1;stroke:none;stroke-width:0.264583px;stroke-linecap:butt;stroke-linejoin:miter;stroke-opacity:1"
       d="m 97.537978,72.378096 7.715112,-0.323139 a 10.271787,10.271787 43.457488 0 1 10.70089,10.139691 l 1.25751,104.922862 a 10.528717,10.528717 134.46156 0 1 -10.45626,10.65465 l -8.86613,0.0604 A 10.540287,10.540287 44.726542 0 1 87.277067,187.32133 L 86.992861,83.404271 A 11.005717,11.005717 133.72247 0 1 97.537978,72.378096 Z"
       id="path897" />
    <path
       style="fill:#fcfcfc;fill-opacity:1;stroke:none;stroke-width:0.264583px;stroke-linecap:butt;stroke-linejoin:miter;stroke-opacity:1"
       d="m 149.26725,82.376662 0.42602,103.850928 a 10.937578,10.937578 45.707999 0 0 10.62235,10.88817 l 9.88231,0.28484 a 10.168412,10.168412 135.50558 0 0 10.46075,-10.27774 L 179.50089,83.45396 A 11.091619,11.091619 45.703501 0 0 168.80612,72.493283 l -9.0057,-0.321861 a 10.17001,10.17001 135.90591 0 0 -10.53317,10.20524 z"
       id="path899" />
  </g>
</svg>
