<?xml version="1.0" encoding="UTF-8" standalone="no"?>
<svg
   width="1024"
   height="1024"
   viewBox="0 0 270.93333 270.93333"
   version="1.1"
   id="svg8"
   xmlns="http://www.w3.org/2000/svg"
   xmlns:svg="http://www.w3.org/2000/svg"
   xmlns:rdf="http://www.w3.org/1999/02/22-rdf-syntax-ns#"
   xmlns:cc="http://creativecommons.org/ns#"
   xmlns:dc="http://purl.org/dc/elements/1.1/">
  <defs
     id="defs2" />
  <metadata
     id="metadata5">
    <rdf:RDF>
      <cc:Work
         rdf:about="">
        <dc:format>image/svg+xml</dc:format>
        <dc:type
           rdf:resource="http://purl.org/dc/dcmitype/StillImage" />
      </cc:Work>
    </rdf:RDF>
  </metadata>
  <g
     id="layer1">
    <path
       id="path3320"
       style="color:#000000;fill:#000000;stroke-width:37.7953;stroke-linecap:round;-inkscape-stroke:none"
       d="M 590.16016,184.40625 228.78711,567.53516 211.7168,665.27539 c 90.76273,11.22597 160.84018,79.21223 178.24804,159.65234 L 495.95312,795.66406 851.77344,409.58398 837.89062,313.42969 457.35156,698.59961 a 18.897638,18.897638 0 0 1 -26.72851,0.16211 18.897638,18.897638 0 0 1 -0.16211,-26.72266 L 813.79102,284.04492 722,213.96289 349.38477,605.12305 a 18.897638,18.897638 0 0 1 -26.71485,0.65039 18.897638,18.897638 0 0 1 -0.65039,-26.7168 L 685.59961,197.38281 Z M 198.73828,739.57812 173.38672,884.72656 316.2832,845.27148 C 307.53835,798.96987 252.77478,747.06471 198.73828,739.57812 Z"
       transform="scale(0.26458333)" />
  </g>
</svg>
