<?xml version="1.0" encoding="UTF-8" standalone="no"?>
<svg
   width="1024"
   height="1024"
   viewBox="0 0 270.93333 270.93333"
   version="1.1"
   id="svg8"
   xmlns="http://www.w3.org/2000/svg"
   xmlns:svg="http://www.w3.org/2000/svg"
   xmlns:rdf="http://www.w3.org/1999/02/22-rdf-syntax-ns#"
   xmlns:cc="http://creativecommons.org/ns#"
   xmlns:dc="http://purl.org/dc/elements/1.1/">
  <defs
     id="defs2" />
  <metadata
     id="metadata5">
    <rdf:RDF>
      <cc:Work
         rdf:about="">
        <dc:format>image/svg+xml</dc:format>
        <dc:type
           rdf:resource="http://purl.org/dc/dcmitype/StillImage" />
      </cc:Work>
    </rdf:RDF>
  </metadata>
  <g
     id="layer1">
    <path
       id="path166"
       style="fill:#000000;fill-opacity:1;stroke:none;stroke-width:0.264583px;stroke-linecap:butt;stroke-linejoin:miter;stroke-opacity:1"
       d="m 129.99514,24.326723 c -23.49078,1.873782 -35.881657,10.193795 -44.279367,21.409386 -1.751115,2.338708 -0.617071,4.330954 2.305101,4.286711 l 12.115716,-0.183433 a 5.2843056,5.2843056 44.172478 0 1 5.3638,5.211059 l 0.11859,8.625797 a 4.8744221,4.8744221 136.56262 0 1 -5.20659,4.930066 L 80.244244,67.22683 c -2.915695,-0.199431 -6.046175,1.882506 -6.831387,4.697207 -0.29512,1.057897 -0.573133,2.117339 -0.835053,3.176475 -0.701521,2.836768 1.211986,5.243168 4.132835,5.341609 l 22.311617,0.751971 a 5.4235418,5.4235418 46.225194 0 1 5.240634,5.469693 l -0.0362,3.990889 a 5.5070611,5.5070611 134.37739 0 1 -5.337185,5.454461 l -24.498616,0.755047 c -2.92112,0.09003 -5.488826,2.524461 -5.632054,5.443328 -0.350479,7.14249 -0.195134,13.19535 0.01786,17.21651 0.154529,2.91736 2.761822,5.22247 5.683607,5.15753 l 112.944558,-2.51039 c 2.92179,-0.0649 5.48651,-2.47992 5.58652,-5.40041 0.67387,-19.679372 -0.99584,-87.828807 -56.03954,-92.230517 -2.91236,-0.232894 -5.28545,-0.222302 -5.28545,-0.22231 z" />
    <path
       style="fill:#000000;fill-opacity:1;stroke:none;stroke-width:0.264583px;stroke-linecap:butt;stroke-linejoin:miter;stroke-opacity:1"
       d="m 71.254149,143.70108 c 5.137195,11.98571 20.993117,41.92368 52.337511,45.38204 2.90363,0.32037 7.6555,0.38346 10.56519,0.12398 31.7182,-2.8286 48.99164,-34.4484 54.5617,-46.78353 1.20244,-2.66285 -0.34221,-4.86256 -3.26456,-4.83286 l -110.826564,1.12621 c -2.922356,0.0297 -4.524311,2.29865 -3.373277,4.98416 z"
       id="path174" />
    <path
       id="path176"
       style="fill:#000000;fill-opacity:1;stroke:none;stroke-width:0.999999px;stroke-linecap:butt;stroke-linejoin:miter;stroke-opacity:1"
       d="m 863.0486,470.36355 -30.59958,-2.96251 c -11.63562,-1.1265 -24.05445,6.96041 -28.30931,17.84709 -25.62322,65.56072 -120.76571,271.56638 -309.45337,286.65397 -11.64993,0.93153 -30.63633,0.99793 -42.29239,0.14541 C 267.25886,758.50684 203.46019,560.22272 187.40726,494.92327 c -2.79027,-11.35013 -9.32687,-20.5709 -15.29203,-20.43499 l -44.2792,-1.6244 c -11.68217,-0.42857 -20.1813,8.66017 -18.22886,20.18375 12.31689,72.69624 71.66623,310.84712 322.73529,334.44697 11.63745,1.09389 21.0962,10.92733 21.07354,22.61734 l -0.0116,6.01049 a 20.863936,20.863936 135.52372 0 1 -21.20487,20.82071 l -155.3188,-2.53863 a 20.548787,20.548787 135.08781 0 0 -20.88279,20.81888 l 0.29727,22.3872 a 21.322555,21.322555 44.449429 0 0 21.44734,21.03906 l 477.14398,-2.83446 a 18.40981,18.40981 130.67491 0 0 18.10716,-21.07018 l -4.92861,-33.74393 a 23.470709,23.470709 39.644989 0 0 -24.20723,-20.058 l -188.12177,7.88532 a 22.095365,22.095365 41.370026 0 1 -22.94127,-20.20413 l -0.16561,-1.94776 c -0.99034,-11.648 7.61295,-22.30832 19.09659,-24.4881 225.49618,-42.8027 306.80898,-261.04181 326.9595,-329.33102 3.30785,-11.21015 -4.00103,-21.36734 -15.63665,-22.49384 z"
       transform="scale(0.26458333)" />
  </g>
</svg>
