<?xml version="1.0" encoding="UTF-8" standalone="no"?>
<svg
   xmlns:dc="http://purl.org/dc/elements/1.1/"
   xmlns:cc="http://creativecommons.org/ns#"
   xmlns:rdf="http://www.w3.org/1999/02/22-rdf-syntax-ns#"
   xmlns:svg="http://www.w3.org/2000/svg"
   xmlns="http://www.w3.org/2000/svg"
   width="1024"
   height="1024"
   viewBox="0 0 270.93333 270.93333"
   version="1.1"
   id="svg8">
  <defs
     id="defs2" />
  <metadata
     id="metadata5">
    <rdf:RDF>
      <cc:Work
         rdf:about="">
        <dc:format>image/svg+xml</dc:format>
        <dc:type
           rdf:resource="http://purl.org/dc/dcmitype/StillImage" />
        <dc:title></dc:title>
      </cc:Work>
    </rdf:RDF>
  </metadata>
  <g
     id="layer1">
    <path
       style="fill:#000000;fill-opacity:1;stroke:none;stroke-width:0.264583px;stroke-linecap:butt;stroke-linejoin:miter;stroke-opacity:1"
       d="m 97.537978,72.378096 7.715112,-0.323139 a 10.271787,10.271787 43.457488 0 1 10.70089,10.139691 l 1.25751,104.922862 a 11.647075,11.647075 131.57378 0 1 -10.39528,11.71928 L 95.128614,200.0994 A 9.327595,9.327595 42.442966 0 1 84.800756,190.65456 L 86.769662,83.402528 A 11.240596,11.240596 134.32667 0 1 97.537978,72.378096 Z"
       id="path897" />
    <path
       style="fill:#000000;fill-opacity:1;stroke:none;stroke-width:0.264583px;stroke-linecap:butt;stroke-linejoin:miter;stroke-opacity:1"
       d="m 149.43722,82.3746 2.08175,103.23318 a 11.271924,11.271924 45.649367 0 0 10.78701,11.03433 l 8.47152,0.36305 a 9.9215143,9.9215143 135.60533 0 0 10.34399,-10.12769 L 178.83046,81.316474 A 10.433149,10.433149 43.347255 0 0 168.02434,71.116463 l -8.22402,0.296125 A 10.752195,10.752195 133.39129 0 0 149.43722,82.3746 Z"
       id="path899" />
  </g>
</svg>
